<svg id="final_svg" viewBox="334.5038757324219 367.37384033203125 408.9989929199219 340.00238037109375" xmlns="http://www.w3.org/2000/svg" xmlns:xlink="http://www.w3.org/1999/xlink" xml:space="preserve">
      <g id="png_group" transform="translate(334.50389059568977, 367.3738339731838) scale(1.298409523809524)" opacity="1">
      <g height="248.6285444857143" width="408.999" transform="rotate(0)">
                  <style type="text/css">.st0{fill:url(#SVGID_1_);}</style>
          <g id="color_index_g">
                          <linearGradient id="SVGID_1_" gradientUnits="userSpaceOnUse" x1="0" y1="95.7437" x2="315" y2="95.7437">
                                  <stop offset="0" style="stop-color:rgba(1, 4, 92, 1)"></stop>
                  <stop offset="0.6788" style="stop-color:rgba(208, 1, 161, 1)"></stop>
                              </linearGradient>
              <path class="st0" d="M275.259,141.808c-2.996,0-5.439,2.432-5.439,5.428c0,3.007,2.443,5.439,5.439,5.439		c3.007,0,5.439-2.432,5.439-5.439C280.698,144.24,278.266,141.808,275.259,141.808z M303.746,73.137		c-2.996,0-5.439,2.443-5.439,5.439c0,2.996,2.443,5.439,5.439,5.439c3.007,0,5.439-2.443,5.439-5.439		C309.185,75.58,306.753,73.137,303.746,73.137z M64.846,141.808c-2.996,0-5.439,2.432-5.439,5.428c0,3.007,2.443,5.439,5.439,5.439		c2.996,0,5.439-2.432,5.439-5.439C70.285,144.24,67.842,141.808,64.846,141.808z M257.881,107.473		c-2.996,0-5.439,2.443-5.439,5.439s2.443,5.439,5.439,5.439c2.996,0,5.439-2.443,5.439-5.439S260.877,107.473,257.881,107.473z		 M102.785,107.473c-2.996,0-5.439,2.443-5.439,5.439s2.443,5.439,5.439,5.439c2.996,0,5.439-2.443,5.439-5.439		S105.781,107.473,102.785,107.473z M135.64,73.137c-2.996,0-5.439,2.443-5.439,5.439c0,2.996,2.443,5.439,5.439,5.439		c2.996,0,5.439-2.443,5.439-5.439C141.078,75.58,138.635,73.137,135.64,73.137z M301.093,58.777c-6.323,0-11.696,4.145-13.564,9.85		L216.614,55.56c0,0,0,0.011-0.011,0c-2.399,1.857-5.417,2.963-8.678,2.963c-6.334,0-11.707-4.145-13.575-9.861H89.376		c-1.857,5.715-7.241,9.861-13.575,9.861c-7.871,0-14.271-6.412-14.271-14.282s6.401-14.271,14.271-14.271		c6.345,0,11.729,4.145,13.586,9.861H194.35c1.857-5.715,7.241-9.861,13.575-9.861c4.566,0,8.634,2.156,11.254,5.494		c-1.481-6.312-7.152-11.021-13.907-11.021c-6.323,0-11.696,4.145-13.564,9.861l-37.674-14.504C137.895,7.384,117.687,0,95.744,0		C42.87,0,0,42.87,0,95.744c0,52.874,42.87,95.744,95.744,95.744c32.003,0,60.325-15.72,77.692-39.83H78.421		c-1.857,5.726-7.241,9.861-13.575,9.861c-7.871,0-14.271-6.401-14.271-14.282c0-7.871,6.401-14.271,14.271-14.271		c6.334,0,11.718,4.145,13.586,9.861h183.252c1.857-5.715,7.241-9.861,13.575-9.861c4.566,0,8.645,2.156,11.254,5.494		c-1.481-6.312-7.152-11.021-13.896-11.021c-6.334,0-11.707,4.145-13.575,9.861l-70.009-19.965h-72.684		c-1.857,5.715-7.23,9.85-13.564,9.85c-7.871,0-14.282-6.401-14.282-14.271s6.412-14.282,14.282-14.282		c6.334,0,11.707,4.145,13.564,9.861h127.968c1.857-5.715,7.23-9.861,13.564-9.861c4.566,0,8.645,2.167,11.254,5.516		c-1.47-6.312-7.152-11.033-13.907-11.033c-5.638,0-10.502,3.283-12.823,8.037l-51.769-18.152h-41.422		c-1.857,5.715-7.241,9.861-13.575,9.861c-7.871,0-14.271-6.412-14.271-14.282s6.401-14.271,14.271-14.271		c6.334,0,11.718,4.134,13.575,9.85h140.957c1.868-5.715,7.241-9.85,13.575-9.85c4.566,0,8.645,2.156,11.254,5.505		C313.53,63.497,307.859,58.777,301.093,58.777z M207.925,38.813c-2.996,0-5.439,2.432-5.439,5.428c0,3.007,2.443,5.439,5.439,5.439		c3.007,0,5.439-2.432,5.439-5.439C213.364,41.245,210.932,38.813,207.925,38.813z M75.801,38.813c-2.996,0-5.428,2.432-5.428,5.428		c0,3.007,2.432,5.439,5.428,5.439c3.007,0,5.439-2.432,5.439-5.439C81.24,41.245,78.808,38.813,75.801,38.813z"></path>
                      </g>
              </g>
    </g>
    <g id="text_group" transform="rotate(0)" opacity="1">
      <g id="text_layer_1_0" fill="#b8bbc6" transform="translate(356.34589059568975, 632.6262339731838)">
                  <path d="M0.26 22.72L0.26 17.15L37.31 17.15L37.31 22.72L21.95 22.72L21.95 61.95L15.62 61.95L15.62 22.72L0.26 22.72ZM36.16 71.62L38.78 67.01Q41.41 69.50 44.86 69.50L44.86 69.50Q47.10 69.50 48.61 68.32Q50.11 67.14 51.33 64.26L51.33 64.26L52.42 61.89L37.44 28.03L43.84 28.03L55.68 55.17L67.39 28.03L73.41 28.03L56.96 65.34Q54.78 70.53 51.87 72.64Q48.96 74.75 44.86 74.75L44.86 74.75Q42.37 74.75 40.03 73.95Q37.70 73.15 36.16 71.62L36.16 71.62ZM97.15 27.71L97.15 27.71Q102.08 27.71 105.98 29.89Q109.89 32.06 112.10 35.97Q114.30 39.87 114.30 44.99L114.30 44.99Q114.30 50.11 112.10 54.05Q109.89 57.98 105.98 60.16Q102.08 62.34 97.15 62.34L97.15 62.34Q93.50 62.34 90.46 60.93Q87.42 59.52 85.31 56.83L85.31 56.83L85.31 74.37L79.17 74.37L79.17 28.03L85.06 28.03L85.06 33.41Q87.10 30.59 90.24 29.15Q93.38 27.71 97.15 27.71ZM96.64 56.96L96.64 56.96Q99.90 56.96 102.50 55.46Q105.09 53.95 106.59 51.23Q108.10 48.51 108.10 44.99L108.10 44.99Q108.10 41.47 106.59 38.75Q105.09 36.03 102.50 34.56Q99.90 33.09 96.64 33.09L96.64 33.09Q93.44 33.09 90.85 34.59Q88.26 36.10 86.75 38.78Q85.25 41.47 85.25 44.99L85.25 44.99Q85.25 48.51 86.72 51.23Q88.19 53.95 90.82 55.46Q93.44 56.96 96.64 56.96ZM153.47 45.18L153.47 45.18Q153.47 45.89 153.34 47.04L153.34 47.04L125.82 47.04Q126.40 51.52 129.76 54.24Q133.12 56.96 138.11 56.96L138.11 56.96Q144.19 56.96 147.90 52.86L147.90 52.86L151.30 56.83Q148.99 59.52 145.57 60.93Q142.14 62.34 137.92 62.34L137.92 62.34Q132.54 62.34 128.38 60.13Q124.22 57.92 121.95 53.95Q119.68 49.98 119.68 44.99L119.68 44.99Q119.68 40.06 121.89 36.10Q124.10 32.13 127.97 29.92Q131.84 27.71 136.70 27.71L136.70 27.71Q141.57 27.71 145.38 29.92Q149.18 32.13 151.33 36.10Q153.47 40.06 153.47 45.18ZM136.70 32.90L136.70 32.90Q132.29 32.90 129.31 35.58Q126.34 38.27 125.82 42.62L125.82 42.62L147.58 42.62Q147.07 38.34 144.10 35.62Q141.12 32.90 136.70 32.90ZM167.87 28.03L167.87 33.73Q169.47 30.78 172.61 29.25Q175.74 27.71 180.22 27.71L180.22 27.71L180.22 33.66Q179.71 33.60 178.82 33.60L178.82 33.60Q173.82 33.60 170.98 36.58Q168.13 39.55 168.13 45.06L168.13 45.06L168.13 61.95L161.98 61.95L161.98 28.03L167.87 28.03ZM199.23 42.43L199.23 42.43L208.96 42.43L208.96 41.22Q208.96 37.18 206.66 35.10Q204.35 33.02 199.87 33.02L199.87 33.02Q196.80 33.02 193.95 34.02Q191.10 35.01 189.12 36.67L189.12 36.67L186.56 32.06Q189.25 29.95 192.86 28.83Q196.48 27.71 200.58 27.71L200.58 27.71Q207.68 27.71 211.39 31.14Q215.10 34.56 215.10 41.47L215.10 41.47L215.10 61.95L209.28 61.95L209.28 57.47Q207.74 59.84 204.90 61.09Q202.05 62.34 198.14 62.34L198.14 62.34Q195.26 62.34 192.96 61.60Q190.66 60.86 189.02 59.55Q187.39 58.24 186.50 56.42Q185.60 54.59 185.60 52.35L185.60 52.35Q185.60 47.87 188.86 45.15Q192.13 42.43 199.23 42.43ZM191.68 52.10L191.68 52.10Q191.68 54.66 193.66 56.13Q195.65 57.60 199.17 57.60L199.17 57.60Q202.69 57.60 205.25 56.03Q207.81 54.46 208.96 51.58L208.96 51.58L208.96 46.85L199.49 46.85Q191.68 46.85 191.68 52.10ZM232.64 61.95L226.50 61.95L226.50 28.03L232.38 28.03L232.38 33.15Q234.24 30.46 237.41 29.09Q240.58 27.71 244.61 27.71L244.61 27.71Q251.14 27.71 254.91 31.42Q258.69 35.14 258.69 42.43L258.69 42.43L258.69 61.95L252.54 61.95L252.54 43.14Q252.54 38.14 250.18 35.68Q247.81 33.22 243.39 33.22L243.39 33.22Q238.40 33.22 235.52 36.13Q232.64 39.04 232.64 44.48L232.64 44.48L232.64 61.95ZM276.22 61.95L270.08 61.95L270.08 14.46L276.22 14.46L276.22 44.93L294.72 28.03L302.14 28.03L287.87 42.05L303.55 61.95L296 61.95L283.26 46.14L276.22 52.67L276.22 61.95ZM340.16 45.18L340.16 45.18Q340.16 45.89 340.03 47.04L340.03 47.04L312.51 47.04Q313.09 51.52 316.45 54.24Q319.81 56.96 324.80 56.96L324.80 56.96Q330.88 56.96 334.59 52.86L334.59 52.86L337.98 56.83Q335.68 59.52 332.26 60.93Q328.83 62.34 324.61 62.34L324.61 62.34Q319.23 62.34 315.07 60.13Q310.91 57.92 308.64 53.95Q306.37 49.98 306.37 44.99L306.37 44.99Q306.37 40.06 308.58 36.10Q310.78 32.13 314.66 29.92Q318.53 27.71 323.39 27.71L323.39 27.71Q328.26 27.71 332.06 29.92Q335.87 32.13 338.02 36.10Q340.16 40.06 340.16 45.18ZM323.39 32.90L323.39 32.90Q318.98 32.90 316.00 35.58Q313.02 38.27 312.51 42.62L312.51 42.62L334.27 42.62Q333.76 38.34 330.78 35.62Q327.81 32.90 323.39 32.90ZM354.56 28.03L354.56 33.73Q356.16 30.78 359.30 29.25Q362.43 27.71 366.91 27.71L366.91 27.71L366.91 33.66Q366.40 33.60 365.50 33.60L365.50 33.60Q360.51 33.60 357.66 36.58Q354.82 39.55 354.82 45.06L354.82 45.06L354.82 61.95L348.67 61.95L348.67 28.03L354.56 28.03Z"></path>
              </g>
    </g>
  </svg>